<?xml version="1.0" encoding="UTF-8"?>
<svg id="Layer_1" data-name="Layer 1" xmlns="http://www.w3.org/2000/svg" viewBox="0 0 926.93 485.03">
  <defs>
    <style>
      .cls-1 {
        fill: #e6efef;
      }

      .cls-2 {
        stroke: #416069;
      }

      .cls-2, .cls-3 {
        fill: none;
        stroke-width: 2px;
      }

      .cls-4 {
        fill: #81bfd1;
      }

      .cls-3 {
        stroke: #6dadcb;
      }

      .cls-5 {
        fill: #599bc4;
      }
    </style>
  </defs>
  <path class="cls-2" d="M16.79,129.93c5.08,6.05,5.67,14.01,7.83,21.75.15.56.38,1.09.68,1.57,2.36,3.86,5.31,6.89,8.84,9.1.78.49,1.76.52,2.56.09l35.89-19.14c.91-.48.93-1.78.03-2.29l-40.96-23.15" vector-effect="non-scaling-stroke"/>
  <path d="M16.79,129.93c5.08,6.05,5.67,14.01,7.83,21.75.15.56.38,1.09.68,1.57,2.36,3.86,5.31,6.89,8.84,9.1.78.49,1.76.52,2.56.09l35.89-19.14c.91-.48.93-1.78.03-2.29l-40.96-23.15c-8.85-4.94-17.65-9.87-26.4-14.78-1.19-.67-2.38-1.82-3.55-3.43-3.51-4.85-1.26-10.17,3.49-12.88,20.54-11.7,66.72-37.36,138.54-76.99C161.82-.2,184.57-3.34,204.23,4.1c5.09,1.92,10.42,4.33,16,7.24,16.06,8.36,42.47,22.98,63.71,35.03,25.91,14.71,47.07,26.46,63.5,35.25,3.7,1.99,7.42,4.42,11.15,7.31.42.32.77.72,1.03,1.18,2.29,4.06,1.68,7.61-1.85,10.66-1.91,1.64-5.81,4.17-11.72,7.58-19.34,11.19-38.35,21.84-57.02,31.95-.34.19-.72.48-1.13.89-.42.41-.33,1.11.19,1.39,14.73,8.01,30.08,16.71,46.05,26.1,32.95,19.39,30.06,65.6-1.91,84.11-14.09,8.16-29.65,16.91-46.7,26.25-.39.22-.4.78-.02,1.01,13.07,7.99,25.83,15.3,38.28,21.93,9.06,4.83,15.15,8.72,18.28,11.67,7.77,7.36,12.56,15.83,14.36,25.4,4.08,21.72-3.99,38.87-20.09,52.46-.33.29-.33.8,0,1.08,12.23,10,25.67,20.85,40.31,32.55,3.74,2.98,2.93,8.95-1.84,10.04-7.41,1.7-16.33,3.45-26.76,5.24-.37.07-.57.46-.4.8,3.77,7.6,7.81,14.69,12.1,21.27,2.7,4.13,4.11,7.11,4.23,8.96.43,6.64-7.25,9.63-13.32,12.65-3.8,1.89-7.34.8-9.42-2.5-4.88-7.8-10.39-16.92-16.53-27.37-.23-.4-.79-.46-1.1-.13-5.29,5.59-11.65,12.07-19.06,19.44-2.61,2.6-5.53,3.49-8.15.66-.97-1.06-1.53-2.54-1.67-4.44-.96-13.17-2.72-30.02-5.28-50.53-.09-.73-.89-1.13-1.53-.78-29.17,15.97-50.34,27.57-63.49,34.8-4.19,2.3-9.22,4.95-15.09,7.94-20.68,10.53-45.66,6.73-65.52-3.71-11-5.78-19.91-10.54-26.74-14.27-57.07-31.21-86.97-47.57-89.69-49.08-3.45-1.91-6.63-3.36-9.09-6.28-3.91-4.65,2.62-8.81,6.33-10.92,15.43-8.79,31.33-17.73,47.7-26.84.55-.31.55-1.09,0-1.4-14.87-8.21-27.54-15.17-37.99-20.86-7.77-4.23-13.13-7.7-16.09-10.4-20.03-18.25-21.64-47.61-5.6-68.95,5.12-6.81,12.77-11.31,20.65-15.62,11.3-6.18,24.87-13.45,40.7-21.81.59-.31.6-1.15.02-1.48-20.96-11.81-33.76-19-38.41-21.55-9.09-4.99-15.28-9.11-18.56-12.36-7.99-7.9-12.49-17.87-13.49-29.91-.86-10.29,1.71-16.03,13.22-15.82Z"/>
  <g>
    <path class="cls-3" d="M284.88,119.54c-4.25-3.99-8.16-6.95-11.72-8.88-16.91-9.15-38.54-21-64.89-35.55-7.53-4.16-15.15-6.72-22.86-7.69-5.07-.63-10.32-.44-15.75.58-6.34,1.19-14.13,5.26-19.88,8.6-23.1,13.41-46.59,26.24-70.46,38.5-1.54.8-2.64,1.8-1.5,3.41.17.24.4.44.67.58,2.63,1.31,4.7,2.58,6.2,3.79,1.05.85,2.24,2.01,3.57,3.49" vector-effect="non-scaling-stroke"/>
    <path class="cls-3" d="M320.88,376.38c-10.69-11.15-23.04-20.28-37.04-27.38" vector-effect="non-scaling-stroke"/>
  </g>
  <path class="cls-4" d="M284.88,119.54c-4.25-3.99-8.16-6.95-11.72-8.88-16.91-9.15-38.54-21-64.89-35.55-7.53-4.16-15.15-6.72-22.86-7.69-5.07-.63-10.32-.44-15.75.58-6.34,1.19-14.13,5.26-19.88,8.6-23.1,13.41-46.59,26.24-70.46,38.5-1.54.8-2.64,1.8-1.5,3.41.17.24.4.44.67.58,2.63,1.31,4.7,2.58,6.2,3.79,1.05.85,2.24,2.01,3.57,3.49-.23.34-.46.59-.68.75-.29.2-.67.16-.9-.1-1.73-1.93-3.51-3.42-5.36-4.48-11.03-6.3-27.15-15.39-48.38-27.27-.31-.18-.38-.59-.15-.87.25-.3.69-.63,1.31-1,12.23-7.27,29.32-17.09,40.85-23.42,30.79-16.9,56.31-31.12,76.56-42.66,1.65-.94,4.82-2.44,9.51-4.49,14.89-6.52,32.57-3.98,46.5,3.72,40.06,22.17,76.81,42.58,110.24,61.25,3.51,1.96,6.84,4.09,10.01,6.39.46.34.42,1.04-.08,1.32l-42.81,24.03Z"/>
  <path d="M476.96,87.75c14.83.12,31.35.16,49.56.13,3.61-.01,5.11,1.56,5.33,5.24.3,4.84.9,10.28-.07,13.25-1.46,4.43-6.18,4.91-10.4,4.91-18.38-.01-32.55.06-42.5.22-.83.01-1.4.06-1.72.13-.46.11-.78.51-.78.98-.02,29.39-.02,48,.01,55.83,0,2.63-1.58,3.95-4.13,4.42-6.67,1.21-13.11.96-19.32-.77-2.06-.58-2.74-2.75-2.73-4.8.19-54.9.27-99.85.24-134.85,0-5.04,2.84-6.05,7.5-6.07,25.6-.12,50.58-.16,74.93-.11,3.25.01,5.18,1.45,5.79,4.34.42,1.99.5,5.34.25,10.06-.21,3.85-1.69,6.5-4.44,7.95-1.25.67-4.35,1-9.28.99-19.16-.02-35.14-.03-47.93-.02-.56,0-1.02.46-1.02,1.03v36.43c0,.39.32.71.71.71Z"/>
  <ellipse cx="562.75" cy="41.08" rx="13.89" ry="14.4" transform="translate(452.43 594.44) rotate(-82.9)"/>
  <path d="M764.01,66.51c.3-.01.54-.26.54-.56.03-11.23.03-17.63,0-19.21-.05-3.07.93-5.67,4.1-5.97,3.49-.33,7.97-.4,13.44-.19,4,.15,7.46-.17,7.48,4.37.03,10.01.02,17.09-.04,21.26-.01.5.4.91.9.91h20.88c1.07,0,1.94.87,1.94,1.95,0,6.44.59,14.39-.68,16.08-1.06,1.4-2.21,2.1-3.44,2.11-6.87.01-13.26.01-19.19.02-.25,0-.45.2-.46.45-.23,14.91-.25,30.52-.05,46.84.09,7.34.52,11.87,1.28,13.59,3.08,6.96,10.72,6.49,17.51,5.84,3.1-.29,5.28.88,5.24,4.04-.01,1.14,0,4.28.03,9.42.02,4.68-2.33,5.88-6.65,6.52-4.66.69-10.52.8-17.59.33-18.93-1.27-24.42-14.39-24.65-31.12-.31-22.24-.38-40.75-.2-55.53.01-.36-.29-.66-.66-.67l-13.35-.07c-.34,0-.68-.06-1-.17-1.61-.55-2.54-2.15-2.81-4.79-.39-3.99-.38-7.65.04-10.98.47-3.69,4.78-4.13,8.26-4.22,4.69-.11,7.73-.19,9.13-.25Z"/>
  <path d="M618.45,78.41c.05.26.38.35.55.15,7.15-8.35,16.27-12.87,27.36-13.56,6.11-.38,7.39,4.37,7.27,9.44-.11,4.67-.34,8.51-.71,11.54-.16,1.32-1.24,2.35-2.57,2.46-13.21,1.06-25.29,4.09-29.3,18.41-.77,2.75-1.17,6.03-1.21,9.85-.19,19.11-.25,36.78-.2,52.99.01,3.86-4.94,4.4-7.77,4.53-4.52.2-8.95.04-13.3-.48-3.52-.42-4.31-2.75-4.31-6.17.01-51.84.01-82.69,0-92.56-.01-5.35-.32-8.2,5.55-8.2,7.43.01,11.54.01,12.32.01,3.99-.04,5.31,2.06,5.61,5.9.17,2.17.4,4.06.71,5.69Z"/>
  <path d="M719.6,95.56c-.39-.47-1.67-2.26-3.83-5.39-3.21-4.64-8-5.49-13.39-6.02-6.88-.68-16.49.23-18.73,8.01-3.03,10.47,10.8,14.74,18.12,16.38,21.25,4.77,44.98,9.6,40.52,38.37-4.32,27.79-35.11,32.89-58.03,27.43-13.8-3.28-23.18-10.59-25.39-25.09-.18-1.17.34-2.33,1.34-2.97,4.96-3.18,11.93-3.75,17.62-3.56.76.02,1.43.5,1.72,1.21,2.76,6.85,7.82,10.81,15.18,11.89,8.79,1.29,22.25-.35,23.37-11.91.89-9.15-5.79-11.13-13.79-12.82-11.95-2.52-26.04-5.61-35.06-13.41-8.76-7.57-10.94-21.12-7.51-31.96,6.78-21.34,33.12-22.74,51.72-19.79,10.76,1.71,24.48,8.68,25.77,20.96,1,9.46-11.32,9.91-18.4,9.31-.47-.04-.92-.27-1.23-.64Z"/>
  <path class="cls-5" d="M284.88,119.54c-38.36,22.03-65.01,36.85-79.95,44.48-11.89,6.07-24.82,7.53-38.79,4.38-3.05-.69-7.45-2.61-13.19-5.75-21.65-11.86-43.22-23.95-64.69-36.28-1.33-1.48-2.52-2.64-3.57-3.49-1.5-1.21-3.57-2.48-6.2-3.79-.27-.14-.5-.34-.67-.58-1.14-1.61-.04-2.61,1.5-3.41,23.87-12.26,47.36-25.09,70.46-38.5,5.75-3.34,13.54-7.41,19.88-8.6,5.43-1.02,10.68-1.21,15.75-.58,7.71.97,15.33,3.53,22.86,7.69,26.35,14.55,47.98,26.4,64.89,35.55,3.56,1.93,7.47,4.89,11.72,8.88Z"/>
  <rect x="550.79" y="66.92" width="24.7" height="107.12" rx="5.48" ry="5.48"/>
  <path class="cls-4" d="M31.66,117.86l40.96,23.15c.9.51.88,1.81-.03,2.29l-35.89,19.14c-.8.43-1.78.4-2.56-.09-3.53-2.21-6.48-5.24-8.84-9.1-.3-.48-.53-1.01-.68-1.57-2.16-7.74-2.75-15.7-7.83-21.75-1.16-5.57,2.98-11.39,8.88-11.61,1.96-.07,3.96-.23,5.99-.46Z"/>
  <path class="cls-5" d="M179.83,189.58c7.85.01,15.49-1.08,23.08-3.39,3.45-1.05,8.34-3.26,14.68-6.62,14.38-7.61,29.61-15.86,45.68-24.74,1.69-.93,3.49-.89,5.39.12,23.01,12.31,35.08,18.77,36.22,19.4.15.08.28.19.39.33.57.74.35,1.65-.43,2.07-32.69,17.63-64.91,35.47-96.67,53.5-8.46,4.8-18.55,8.14-28.39,8.13-9.84-.01-19.92-3.36-28.36-8.18-31.73-18.09-63.93-35.99-96.58-53.68-.78-.42-1-1.33-.43-2.07.11-.14.24-.25.4-.33,1.14-.63,13.22-7.07,36.25-19.34,1.9-1,3.7-1.04,5.39-.11,16.06,8.91,31.27,17.19,45.64,24.83,6.33,3.37,11.22,5.59,14.66,6.64,7.59,2.34,15.23,3.43,23.08,3.44Z"/>
  <path class="cls-5" d="M337.5,208.17c.17,6.36-1.66,12.24-5.48,17.65-1.09,1.55-2.09,2.67-2.99,3.36-.92.71-2.14.9-3.23.5-1.69-.63-3.38-1.4-5.05-2.32-13.12-7.19-23.92-12.8-32.4-16.82-.39-.18-.59-.54-.6-1.07-.02-.52.16-.89.54-1.09,8.26-4.46,18.75-10.63,31.48-18.5,1.62-1.01,3.26-1.87,4.92-2.58,1.06-.46,2.29-.34,3.25.33.93.64,1.99,1.71,3.16,3.2,4.1,5.2,6.24,10.98,6.4,17.34Z"/>
  <path d="M476.92,309.3c.24.78.95,1.31,1.76,1.3,20.51-.13,38.58-.14,54.21,0,4.73.03,5.61,2.77,5.79,7.11.23,5.65.15,9.57-.25,11.76-.79,4.38-4.02,4.93-8.16,4.95-40.03.19-64.82.22-74.38.11-2.48-.03-4.22-1.21-5.23-3.53-.08-.19-.12-.39-.13-.59-.04-43.05.09-86.09.38-129.12.03-3.17.88-5.27,4.06-5.88,6.82-1.33,13.25-1.25,19.29.24,1.84.45,2.53,2.86,2.53,4.7v107.6c0,.61.04,1.07.13,1.36Z"/>
  <path class="cls-5" d="M53.33,244.89c-.45-.32-.41-1.01.08-1.27,13.02-6.93,25.94-13.81,38.76-20.66,1.56-.83,3.17-.8,4.83.09,13.76,7.39,27.2,14.89,40.32,22.5,2.53,1.47,6.54,3.47,12.03,6.02,5.12,2.37,9.26,3.97,12.43,4.8,17.97,4.67,34.9,2.57,50.81-6.28,18.15-10.11,36.3-20.01,54.47-29.71.61-.32,1.34-.32,1.95.01l38.96,21.42c.61.34.62,1.21,0,1.55-27.51,15.51-55.31,30.85-83.4,46.02-10.2,5.51-15.88,8.56-17.04,9.14-14.41,7.24-26.16,10.46-41.23,6.66-4.01-1.01-10.9-4.24-20.69-9.67-21.74-12.07-48.96-26.77-81.66-44.09-3.76-1.99-7.3-4.17-10.63-6.53Z"/>
  <path d="M639.05,260.96c-.03-4.19-.39-7.74-1.08-10.64-3.31-13.87-16.41-21.63-29.81-23.42-11.03-1.46-21.71-.63-32.03,2.5-8.61,2.61-20.89,10.39-21.57,20.37-.15,2.09.2,3.78,1.03,5.07,2.91,4.49,11.59,5.02,16.28,4.4.42-.06.81-.28,1.08-.61.13-.16.71-.96,1.72-2.4,6.25-8.85,16.76-10.94,26.93-9.57,10.88,1.48,15.62,10.49,13.11,20.68-.2.85-.92,1.49-1.79,1.6-7.43.93-17.69,2.1-30.78,3.53-15.77,1.72-30.19,9.76-32.16,26.61-1.59,13.56,3.55,29.99,18,34.42,17.83,5.47,33.31,2.23,46.46-9.74.27-.24.7-.08.75.28.55,4.51-.34,9.3,5.61,10.1,5.27.71,9.94.7,14.01-.03,2.96-.53,4.44-2.45,4.45-5.76.01-24.77-.06-47.24-.21-67.39ZM585.64,315.46c-7.61-.87-11.72-4.67-12.33-11.4-.86-9.5,7.56-13.65,15.38-15.02,8.11-1.42,16.42-2.79,24.93-4.11.25-.04.49.12.55.37,4.91,19.93-9.4,32.35-28.53,30.16Z"/>
  <path d="M850.28,261.62c-7.04-28.8-33-39.16-59.99-34.06-33.19,6.28-42.41,38.36-37.79,67.79,5.25,33.49,35.93,45.83,66.43,39.14,12.24-2.69,24.52-10.64,27.85-23.33.39-1.49.06-2.6-1.01-3.33-3.79-2.59-8.29-4.42-13.5-5.49-1.21-.25-2.45.22-3.2,1.2-6.48,8.59-15.02,12.68-25.62,12.27-7.36-.29-15-2.43-19.45-7.74-4.22-5.04-6.55-10.67-6.99-16.89-.07-.99.72-1.84,1.72-1.84,26.21-.01,48.12-.01,65.71,0,3.42,0,6.08-.65,6.64-4.21,1.3-8.19,1.03-16.02-.8-23.51ZM825.39,270.32l-47.05.41c-.58.01-1.06-.46-1.06-1.04v-1.21c-.12-12.09,9.61-21.98,21.72-22.09l5.3-.04c12.12-.11,22.02,9.61,22.12,21.71l.02,1.21c0,.57-.47,1.05-1.05,1.05Z"/>
  <path d="M889.4,238.8c.06.43.6.59.88.26,8.47-9.79,19.2-13.7,32.18-11.74,4.83.73,4.51,3.84,4.44,8.3-.09,5.67-.14,8.96-.14,9.86-.01,3.19-1.49,4.9-4.46,5.13-5.79.44-13.57.05-20.15,3.59-10.05,5.4-12.32,19.29-12.31,29.5.01,28.7-.01,44.07-.06,46.1-.15,5.28-6.4,4.65-10.12,4.77-3.97.13-7.85-.15-11.63-.83-2.15-.39-3.23-1.53-3.24-3.44-.23-33.67-.32-65.95-.25-96.85.01-3.93,2.26-5.2,6.07-5.29,6.03-.14,11.31-.09,15.86.15.92.05,1.74.64,2.07,1.5,1.13,2.88.56,6.64.86,8.99Z"/>
  <path d="M698.06,300.73c.18.47.84.47,1.02,0,8.13-21.71,16.48-44.37,25.05-68,1.34-3.68,4.27-5.08,8.36-4.91,3.23.13,8.22.31,14.98.54,1.33.05,2.44,1.04,2.61,2.36.19,1.43.03,2.82-.49,4.18-2.23,5.87-16.58,42.76-43.05,110.68-4.87,12.5-11.79,23.95-26.44,25.77-8.34,1.03-15.94.05-22.79-2.94-4.58-2-3.17-12.29-2.09-15.84.46-1.52,2.49-2.25,4.18-2.26,5.77-.04,11.66.27,16.42-1.89,5.18-2.35,10.08-10.03,9.04-15.8-.16-.91-.51-2.05-1.06-3.41-15.85-39.79-27.84-70.2-35.97-91.23-1.52-3.94-2.82-9.68,3.68-9.69,5.27,0,11.18.01,17.73.05,2.02.02,2.53,1.82,3.14,3.45,10.37,27.87,18.93,50.85,25.68,68.94Z"/>
  <path class="cls-5" d="M73.12,280.28l-39.52,21.08c-.2.1-.42.15-.65.13-1.53-.16-2.91-.92-4.14-2.27-7.95-8.71-7.72-22.57-3.84-32.91,1.52-4.05,4.56-8.95,9.16-9.32,1.37-.11,3.32.61,5.86,2.16,8.23,5.03,19.28,11.56,33.15,19.58.6.35.59,1.22-.02,1.55Z"/>
  <path class="cls-5" d="M305.74,316.01c-.1.2-.34.4-.72.6-13.16,6.85-26.61,14.63-38.2,20.72-9.77,5.14-26.25,14.1-49.45,26.87-7.95,4.37-17.17,9.53-26.03,11.71-8.41,2.07-16.88,1.98-25.41-.27-2.77-.73-7.31-2.84-13.64-6.34-22.37-12.38-49.6-27.24-81.67-44.59-6.68-3.61-12.71-7.08-18.08-10.4-.69-.43-.66-1.44.05-1.82,9.84-5.25,22.74-12.14,38.69-20.65,2.46-1.31,4.21-.99,6.68.4,20.4,11.56,34.79,19.68,49.71,27.42,21.44,11.12,46.96,9.1,67.92-2.27,10.93-5.93,26.09-14.18,45.48-24.77,2.6-1.42,4.41-.86,7.02.64,14.54,8.41,26.98,15.6,37.31,21.57.41.24.56.76.34,1.18Z"/>
  <path class="cls-5" d="M320.88,376.38c-10.69-11.15-23.04-20.28-37.04-27.38,12.79-4.77,24.58-10.84,35.38-18.2,3.36-2.29,7.73-4.48,10.93-.74,9.15,10.67,9.03,22.04,2.73,34.15-3.15,6.06-7.15,10.12-12,12.17Z"/>
  <path class="cls-4" d="M283.84,349c14,7.1,26.35,16.23,37.04,27.38-1.19,1.05-2.57,1.32-4.13.82-.32-.1-.61-.26-.86-.47-9.32-7.57-18.96-16.21-29.11-22.48-.56-.35-1.26-.37-1.83-.05-2.01,1.11-2.87,2.95-2.57,5.5.93,7.99,2.43,19.77,4.5,35.36.09.67-.24,1.33-.84,1.66-37.63,20.67-60.89,33.53-69.8,38.57-9.14,5.17-15.83,8.33-20.07,9.48-12.83,3.48-28.22,3.26-40.12-3.24-68.31-37.33-102.67-56.14-103.07-56.41-.33-.23-.53-.38-.58-.45-.35-.51-.16-1.23.41-1.53,7.11-3.81,20.49-10.95,40.12-21.4,1.64-.88,3.24-.29,4.94.66,25.18,14.11,43.33,23.76,54.44,28.97,15.06,7.06,30.2,8.53,45.42,4.41,4.47-1.21,12.78-5.16,24.94-11.85,20.76-11.42,41.15-23.06,61.17-34.93Z"/>
  <path class="cls-1" d="M290.33,365.05c.17,0,.38.1.63.3,3.78,3.01,29.83,23.8,78.14,62.38.39.31.66.57.79.76.34.47.09,1.14-.48,1.25l-29.57,5.94c-1,.2-1.62,1.2-1.36,2.19.39,1.49,1.21,3.35,2.44,5.59,3.39,6.18,8.7,15.11,15.95,26.78.67,1.07.69,2.07.06,3.01-.18.26-.41.47-.68.62-3.65,2.04-8.44,5.68-10.84,3.11-.1-.11-.18-.22-.25-.35-9.68-18.11-14.7-27.54-15.05-28.28-1.65-3.41-4.2-5.94-7.48-2.91-6.64,6.13-13.13,12.8-19.48,20.01-.52.59-1.5.29-1.59-.49l-11.63-99.45c-.03-.24.16-.45.4-.46Z"/>
  <ellipse cx="531.23" cy="384.66" rx="8.12" ry="7.77" transform="translate(-106.77 232.57) rotate(-22.5)"/>
  <ellipse cx="622.63" cy="384.52" rx="7.67" ry="8.15" transform="translate(59.6 851.99) rotate(-71.4)"/>
  <rect x="708.34" y="412.6" width="81.5" height="12.86" rx="3.5" ry="3.5" transform="translate(328.75 1167.39) rotate(-89.9)"/>
  <path d="M478.54,378.69l-25.14-.13c-2.03-.01-3.7,1.63-3.71,3.67l-.38,73.94c-.01,2.04,1.63,3.7,3.67,3.71l25.14.13c20.13.1,36.53-15.77,36.63-35.45l.06-10.04c.1-19.68-16.14-35.72-36.27-35.83ZM478.2,447.23l-12.76.02c-.99,0-1.79-.8-1.79-1.79l-.1-52.82c0-.99.8-1.79,1.79-1.79l12.76-.02c12.54-.02,22.73,10.13,22.75,22.67l.02,10.98c.02,12.54-10.13,22.73-22.67,22.75Z"/>
  <path d="M660.43,410.43c-.54-.01-.98.43-.98.97v32.46c0,1.2.59,2.33,1.57,3.03,2.82,1.99,5.96,2.28,9.43.85.31-.12.64-.14.96-.06,1.8.5,2.73,1.44,2.8,2.82.18,3.47.95,8.88-3.86,9.36-12.36,1.22-23.24.06-23.78-15.17-.36-10.33-.32-21.22.13-32.68.02-.57-.44-1.05-1.01-1.05h-6.47c-1.21,0-2.18-.97-2.19-2.18v-5.75c0-1.55,1.24-2.81,2.79-2.83l5.77-.09c.44-.01.81-.34.85-.78.02-.28.04-3.97.05-11.06,0-1.27.7-2.19,2.11-2.74.17-.06.34-.09.51-.09h6.89c.21,0,.42.04.6.13,1.88.89,2.83,2.1,2.84,3.65,0,2.77.02,6,.03,9.68.01.41.34.74.75.74,5.07-.03,8.36-.01,9.87.07,2.64.14,2.85,2.6,2.88,5.14.04,3.12-.31,5.55-4.12,5.59-2.97.03-5.77.03-8.42-.01Z"/>
  <path d="M729.7,419.32c-.17-10.23-4.94-16.68-14.33-19.36-9.76-2.78-22.19-.79-29.17,6.55-2.28,2.39-3.49,5.66-1.46,8.36,2.14,2.85,7.25,2.18,9.63.05,1.99-1.77,4.06-4.52,7.62-4.89,6.23-.65,12.25-.72,14.68,6.41.99,2.9.49,5.1-1.48,6.59-.94.71-2.71,1.02-5.31.93-5.94-.22-12.18.73-18.72,2.85-9.2,2.97-12.36,10.31-10.91,19.51,1.02,6.5,5.42,11.7,11.39,13.65,7.51,2.45,14.82,1.47,21.94-2.92.95-.59,2.67-2.31,3.22-2.51.29-.1.6.1.61.41.12,3.31.92,4.9,4.17,5.16,2.83.22,5.28-.14,7.35-1.07.58-.26.95-.83.96-1.46.07-12.69.01-25.44-.19-38.26ZM709.62,448.92c-5.37,2.34-13.67,2.97-16.16-3.53-1.67-4.34,1.14-9.6,5.53-10.84,4.54-1.29,10.18-1.99,16.91-2.11.47-.01.88.32.97.78,1.19,6.38-.79,12.88-7.25,15.7Z"/>
  <path d="M603.41,400.57c-3.39-1.04-6.83-.92-10.34.37-.35.13-.65.36-.86.67-.46.67-.76,1.41-.91,2.2-.1.51-.67.77-1.11.51-1.7-.97-5.32-3.23-7.77-4.02-11.37-3.66-23.34-.58-29.58,9.74-4.16,6.88-4.5,13.42-4.65,21.91-.2,11.33,6.23,22.15,17.25,25.64,9.39,2.97,18.1,2.25,24.43-5.47.28-.35.85-.16.86.29.26,8.62-1.69,17.35-11.81,18.62-4.07.51-8.05-.09-11.93-1.81-2.71-1.2-5.77-4.01-7.71-5.15-.25-.15-.53-.25-.81-.31-2.33-.53-4.34.05-6.03,1.73-1.16,1.16-1.6,2.32-1.31,3.49,2.17,8.84,11.8,13.2,20.28,14.07,10.91,1.12,23.72-1.26,29.02-11.6,2.97-5.81,2.9-11.02,3.06-18.53.37-18.32.55-35.49.54-51.5,0-.39-.25-.74-.62-.85ZM577.51,447.4h-2.56c-7.43.02-13.47-6-13.48-13.43l-.02-9.7c-.01-7.44,6-13.47,13.44-13.49h2.56c7.43-.02,13.47,6,13.48,13.43l.02,9.7c.01,7.44-6,13.47-13.44,13.49Z"/>
  <rect x="525.03" y="400.14" width="12.68" height="60.32" rx="4.03" ry="4.03"/>
  <rect x="616.27" y="400.14" width="12.88" height="59.88" rx="3.09" ry="3.09"/>
</svg>